<svg width="286" height="151" viewBox="0 0 286 151" fill="none" xmlns="http://www.w3.org/2000/svg">
<g clip-path="url(#clip0_10949_10253)">
<path d="M268.337 150.473L75.156 150.473V102.026L268.337 102.026C269.331 102.026 270.285 102.421 270.988 103.124C271.691 103.827 272.086 104.78 272.086 105.775V146.724C272.086 147.718 271.691 148.672 270.988 149.375C270.285 150.078 269.331 150.473 268.337 150.473Z" fill="#1F7AEA"/>
<path opacity="0.2" d="M268.337 150.473L75.156 150.473V102.026L268.337 102.026C269.331 102.026 270.285 102.421 270.988 103.124C271.691 103.827 272.086 104.78 272.086 105.775V146.724C272.086 147.718 271.691 148.672 270.988 149.375C270.285 150.078 269.331 150.473 268.337 150.473Z" fill="black"/>
<path opacity="0.2" d="M122.499 150.473H152.057V102.026H122.499V150.473Z" fill="black"/>
<path opacity="0.2" d="M164.769 150.473H179.756V102.026H164.769V150.473Z" fill="black"/>
<path d="M11.157 102.036H75.1416V150.483H11.157C10.1576 150.483 9.1991 150.086 8.4924 149.379C7.78569 148.673 7.38867 147.714 7.38867 146.715V105.804C7.38867 105.309 7.48614 104.819 7.67552 104.362C7.8649 103.905 8.14247 103.489 8.4924 103.139C8.84232 102.789 9.25774 102.512 9.71493 102.322C10.1721 102.133 10.6622 102.036 11.157 102.036Z" fill="#1F7AEA"/>
<path opacity="0.9" d="M7.38867 107.253H63.3534C64.6578 107.253 65.9088 107.771 66.8311 108.693C67.7535 109.616 68.2716 110.867 68.2716 112.171V140.376C68.2716 141.68 67.7535 142.931 66.8311 143.853C65.9088 144.776 64.6578 145.294 63.3534 145.294H7.38867V107.253Z" fill="white"/>
<path opacity="0.2" d="M245.016 140.116C252.668 140.116 258.872 133.913 258.872 126.26C258.872 118.608 252.668 112.404 245.016 112.404C237.364 112.404 231.16 118.608 231.16 126.26C231.16 133.913 237.364 140.116 245.016 140.116Z" fill="black"/>
<path d="M282.312 102.036L89.1693 102.036V66.8644L282.312 66.8644C283.306 66.8644 284.259 67.2594 284.962 67.9625C285.666 68.6656 286.061 69.6191 286.061 70.6134V98.2866C286.061 99.2809 285.666 100.235 284.962 100.938C284.259 101.641 283.306 102.036 282.312 102.036Z" fill="#263238"/>
<path opacity="0.2" d="M282.312 102.036L89.1693 102.036V66.8644L282.312 66.8644C283.306 66.8644 284.259 67.2594 284.962 67.9625C285.666 68.6656 286.061 69.6191 286.061 70.6134V98.2866C286.061 99.2809 285.666 100.235 284.962 100.938C284.259 101.641 283.306 102.036 282.312 102.036Z" fill="black"/>
<path d="M25.1219 66.8643H89.1161V102.035H25.1219C24.1224 102.035 23.164 101.638 22.4572 100.932C21.7505 100.225 21.3535 99.2666 21.3535 98.2671V70.6423C21.3523 70.1466 21.4488 69.6555 21.6376 69.1972C21.8264 68.7389 22.1038 68.3223 22.4538 67.9714C22.8039 67.6205 23.2197 67.342 23.6776 67.152C24.1354 66.9621 24.6262 66.8643 25.1219 66.8643Z" fill="#263238"/>
<path opacity="0.9" d="M21.3652 72.0708H77.301C77.9469 72.0708 78.5864 72.198 79.1831 72.4452C79.7798 72.6923 80.322 73.0546 80.7787 73.5113C81.2354 73.968 81.5977 74.5102 81.8448 75.1069C82.092 75.7036 82.2192 76.3431 82.2192 76.989V91.9174C82.2166 93.2201 81.6973 94.4686 80.7753 95.3889C79.8532 96.3091 78.6037 96.8259 77.301 96.8259H21.3652V72.0708Z" fill="white"/>
<path opacity="0.3" d="M129.569 93.7065L264.746 93.7065C266.982 93.7065 268.795 91.8939 268.795 89.658V79.2419C268.795 77.0059 266.982 75.1933 264.746 75.1933L129.569 75.1933C127.333 75.1933 125.52 77.0059 125.52 79.2419V89.658C125.52 91.8939 127.333 93.7065 129.569 93.7065Z" fill="#1F7AEA"/>
<path opacity="0.3" d="M96.4532 102.036H101.584V66.8741H96.4532V102.036Z" fill="#1F7AEA"/>
<path opacity="0.3" d="M105.82 102.036H110.951V66.8741H105.82V102.036Z" fill="#1F7AEA"/>
<path d="M260.946 66.8721L67.7558 66.8721V30.5993L260.946 30.5993C261.941 30.5993 262.894 30.9943 263.597 31.6974C264.3 32.4005 264.695 33.354 264.695 34.3484V63.1231C264.695 64.1174 264.3 65.0709 263.597 65.774C262.894 66.4771 261.941 66.8721 260.946 66.8721Z" fill="#1F7AEA"/>
<path opacity="0.3" d="M260.946 66.8721L67.7558 66.8721V30.5993L260.946 30.5993C261.941 30.5993 262.894 30.9943 263.597 31.6974C264.3 32.4005 264.695 33.354 264.695 34.3484V63.1231C264.695 64.1174 264.3 65.0709 263.597 65.774C262.894 66.4771 261.941 66.8721 260.946 66.8721Z" fill="black"/>
<path opacity="0.9" d="M115.113 66.8721L182.189 66.8721V30.5993L115.113 30.5993V66.8721Z" fill="white"/>
<path opacity="0.9" d="M211.006 66.8721H245.018V30.5993L211.006 30.5993V66.8721Z" fill="white"/>
<path d="M3.76835 30.5908H67.7529V66.8636H3.76835C3.27348 66.8636 2.78346 66.7661 2.32626 66.5767C1.86907 66.3873 1.45365 66.1098 1.10372 65.7598C0.7538 65.4099 0.476225 64.9945 0.286848 64.5373C0.0974711 64.0801 0 63.5901 0 63.0952L0 34.3592C0 33.8643 0.0974711 33.3743 0.286848 32.9171C0.476225 32.4599 0.7538 32.0445 1.10372 31.6945C1.45365 31.3446 1.86907 31.067 2.32626 30.8777C2.78346 30.6883 3.27348 30.5908 3.76835 30.5908Z" fill="#1F7AEA"/>
<path opacity="0.9" d="M0 35.751H55.9744C56.6228 35.7535 57.2642 35.8842 57.8618 36.1355C58.4594 36.3868 59.0015 36.7538 59.4568 37.2154C59.9121 37.6769 60.2716 38.224 60.5147 38.825C60.7578 39.426 60.8797 40.0692 60.8733 40.7175V56.7474C60.8733 58.0518 60.3551 59.3028 59.4328 60.2251C58.5104 61.1474 57.2595 61.6656 55.9551 61.6656H0V35.751Z" fill="white"/>
<path d="M274.913 30.5996L81.7225 30.5996V6.54016L274.913 6.54016C275.405 6.54016 275.893 6.63714 276.348 6.82554C276.803 7.01395 277.216 7.2901 277.564 7.63823C277.912 7.98636 278.188 8.39965 278.377 8.8545C278.565 9.30935 278.662 9.79686 278.662 10.2892V26.8506C278.662 27.8449 278.267 28.7985 277.564 29.5015C276.861 30.2046 275.907 30.5996 274.913 30.5996Z" fill="#1F7AEA"/>
<path opacity="0.3" d="M274.913 30.5996L81.7225 30.5996V6.54016L274.913 6.54016C275.405 6.54016 275.893 6.63714 276.348 6.82554C276.803 7.01395 277.216 7.2901 277.564 7.63823C277.912 7.98636 278.188 8.39965 278.377 8.8545C278.565 9.30935 278.662 9.79686 278.662 10.2892V26.8506C278.662 27.8449 278.267 28.7985 277.564 29.5015C276.861 30.2046 275.907 30.5996 274.913 30.5996Z" fill="white"/>
<path opacity="0.2" d="M274.913 30.5996L81.7225 30.5996V6.54016L274.913 6.54016C275.405 6.54016 275.893 6.63714 276.348 6.82554C276.803 7.01395 277.216 7.2901 277.564 7.63823C277.912 7.98636 278.188 8.39965 278.377 8.8545C278.565 9.30935 278.662 9.79686 278.662 10.2892V26.8506C278.662 27.8449 278.267 28.7985 277.564 29.5015C276.861 30.2046 275.907 30.5996 274.913 30.5996Z" fill="black"/>
<path d="M17.743 6.53125H81.7372V30.5907H17.743C16.7435 30.5907 15.785 30.1937 15.0783 29.487C14.3716 28.7803 13.9746 27.8218 13.9746 26.8223V10.2996C13.9746 9.30017 14.3716 8.34168 15.0783 7.63497C15.785 6.92827 16.7435 6.53125 17.743 6.53125Z" fill="#1F7AEA"/>
<path opacity="0.3" d="M17.743 6.53125H81.7372V30.5907H17.743C16.7435 30.5907 15.785 30.1937 15.0783 29.487C14.3716 28.7803 13.9746 27.8218 13.9746 26.8223V10.2996C13.9746 9.30017 14.3716 8.34168 15.0783 7.63497C15.785 6.92827 16.7435 6.53125 17.743 6.53125Z" fill="white"/>
<path opacity="0.9" d="M13.9746 11.7412H69.949C71.2534 11.7412 72.5044 12.2594 73.4267 13.1817C74.3491 14.104 74.8672 15.355 74.8672 16.6594V20.5244C74.8672 21.8287 74.3491 23.0797 73.4267 24.002C72.5044 24.9244 71.2534 25.4425 69.949 25.4425H13.9746V11.7412Z" fill="white"/>
<path opacity="0.4" d="M99.025 24.252L186.586 24.252V12.8793L99.025 12.8793V24.252Z" fill="#263238"/>
</g>
<defs>
<clipPath id="clip0_10949_10253">
<rect width="286.008" height="150.734" fill="white"/>
</clipPath>
</defs>
</svg>
