<svg width="286" height="311" viewBox="0 0 286 311" fill="none" xmlns="http://www.w3.org/2000/svg">
<g clip-path="url(#clip0_10949_10547)">
<path d="M143.009 36.7758L142.338 36.2411C145.39 32.3527 148.608 28.6977 151.894 25.2759L152.516 25.8786C149.249 29.2712 146.051 32.9457 143.009 36.7758Z" fill="#4491EE"/>
<path d="M139.391 39.9657L136.256 43.9185L136.926 44.45L140.061 40.4973L139.391 39.9657Z" fill="#4491EE"/>
<path d="M206.841 81.8724C227.965 47.9171 230.842 14.4575 215.464 3.6284C200.085 -7.20076 169.561 6.80715 144.705 38.1087L73.6152 127.707L146.445 178.995L206.841 81.8724Z" fill="#4491EE"/>
<path opacity="0.1" d="M198.533 76.0183L136.707 172.13L129.135 157.674L190.532 69.9913C207.894 45.1932 217.615 22.5336 217.654 9.91578C217.637 9.6587 217.717 9.4047 217.877 9.20295C218.037 9.00121 218.267 8.86607 218.521 8.82373C218.775 8.78138 219.036 8.83482 219.253 8.97371C219.47 9.1126 219.627 9.32706 219.695 9.57555C224.06 22.1545 216.478 48.1289 198.533 76.0183Z" fill="white"/>
<path d="M146.45 178.982C156.282 165.018 147.947 142.217 127.833 128.055C107.719 113.892 83.4433 113.731 73.6112 127.695C63.7791 141.659 72.114 164.459 92.2278 178.622C112.342 192.784 136.618 192.945 146.45 178.982Z" fill="#4491EE"/>
<path opacity="0.5" d="M146.45 178.982C156.282 165.018 147.947 142.217 127.833 128.055C107.719 113.892 83.4433 113.731 73.6112 127.695C63.7791 141.659 72.114 164.459 92.2278 178.622C112.342 192.784 136.618 192.945 146.45 178.982Z" fill="white"/>
<path opacity="0.1" d="M138.893 112.22C122.902 100.963 104.782 97.7457 93.2043 103.005L75.1719 125.732C85.8649 113.795 108.719 114.612 127.83 128.065C146.942 141.519 155.428 162.798 147.768 176.865L162.913 152.562C164.206 139.799 155.039 123.594 138.893 112.22Z" fill="black"/>
<path opacity="0.2" d="M164.485 38.9429C160.052 45.9614 156.708 59.0944 169.889 68.3585C183.071 77.6226 194.289 70.0694 199.402 63.498L164.485 38.9429Z" fill="black"/>
<path d="M202.511 55.4094C200.994 67.9494 186.51 77.0968 171.297 66.3843C156.083 55.6718 159.806 38.942 171.102 33.333C178.062 29.8529 186.918 31.3889 192.984 35.6078C199.05 39.8267 203.444 47.6326 202.511 55.4094Z" fill="white"/>
<path d="M173.354 63.4315C167.434 59.2612 164.411 53.8175 164.839 48.121C165.033 45.6636 165.859 43.2983 167.237 41.2544C168.615 39.2105 170.498 37.5575 172.703 36.4558C177.991 33.8117 185.486 34.638 190.92 38.4583C196.354 42.2787 199.669 49.0639 198.94 54.9354C198.647 57.3777 197.729 59.7031 196.275 61.687C194.821 63.6709 192.879 65.246 190.638 66.2603C185.418 68.6128 179.274 67.5921 173.354 63.4315Z" fill="#4491EE"/>
<path opacity="0.3" d="M173.354 63.4315C167.434 59.2612 164.411 53.8175 164.839 48.121C165.033 45.6636 165.859 43.2983 167.237 41.2544C168.615 39.2105 170.498 37.5575 172.703 36.4558C177.991 33.8117 185.486 34.638 190.92 38.4583C196.354 42.2787 199.669 49.0639 198.94 54.9354C198.647 57.3777 197.729 59.7031 196.275 61.687C194.821 63.6709 192.879 65.246 190.638 66.2603C185.418 68.6128 179.274 67.5921 173.354 63.4315Z" fill="black"/>
<path d="M173.356 63.4313C167.436 59.261 164.306 53.9728 164.54 48.5485C164.64 46.2423 165.377 44.0088 166.666 42.0945C167.956 40.1802 169.75 38.6594 171.85 37.6999C176.934 35.3474 184.283 36.3778 189.717 40.2079C195.151 44.038 198.592 50.5996 198.087 56.1794C197.889 58.4826 197.058 60.6862 195.686 62.5461C194.313 64.406 192.452 65.8496 190.31 66.717C185.313 68.7681 179.276 67.5919 173.356 63.4313Z" fill="#4491EE"/>
<path opacity="0.2" d="M173.356 63.4313C167.436 59.261 164.306 53.9728 164.54 48.5485C164.64 46.2423 165.377 44.0088 166.666 42.0945C167.956 40.1802 169.75 38.6594 171.85 37.6999C176.934 35.3474 184.283 36.3778 189.717 40.2079C195.151 44.038 198.592 50.5996 198.087 56.1794C197.889 58.4826 197.058 60.6862 195.686 62.5461C194.313 64.406 192.452 65.8496 190.31 66.717C185.313 68.7681 179.276 67.5919 173.356 63.4313Z" fill="white"/>
<path opacity="0.3" d="M193.817 44.0453L166.462 56.1187C165.101 53.8335 164.426 51.2046 164.518 48.5461C164.56 47.293 164.807 46.0551 165.247 44.8813L182.9 37.1045C185.339 37.725 187.644 38.7822 189.705 40.2249C191.244 41.3041 192.628 42.5896 193.817 44.0453Z" fill="white"/>
<path opacity="0.3" d="M197.739 51.831L172.639 62.8934C171.127 61.7884 169.75 60.5094 168.537 59.0828L195.853 47.0288C196.699 48.5353 197.334 50.1512 197.739 51.831Z" fill="white"/>
<path opacity="0.1" d="M225.132 30.1848C224.296 23.4773 219.135 15.72 210.988 9.98465C202.842 4.24929 193.811 2.01346 187.211 3.48133C198.439 -1.09725 208.5 -1.27222 215.47 3.62714C222.44 8.52651 225.657 18.0725 225.132 30.1848Z" fill="black"/>
<path opacity="0.5" d="M127.824 151.639C130.887 147.289 128.406 140.267 122.282 135.955C116.158 131.644 108.711 131.675 105.648 136.025C102.585 140.375 105.066 147.397 111.189 151.709C117.313 156.021 124.76 155.99 127.824 151.639Z" fill="#4491EE"/>
<path opacity="0.5" d="M98.8882 147.548C95.826 151.893 88.3798 151.932 82.2556 147.616C76.1314 143.3 73.6525 136.281 76.7146 131.936C79.7767 127.591 87.223 127.552 93.3472 131.868C99.4714 136.184 101.95 143.203 98.8882 147.548Z" fill="#4491EE"/>
<path opacity="0.5" d="M141.435 177.495C138.373 181.85 130.927 181.879 124.802 177.563C118.678 173.247 116.19 166.228 119.252 161.883C122.314 157.537 129.77 157.499 135.894 161.815C142.018 166.131 144.497 173.149 141.435 177.495Z" fill="#4491EE"/>
<path opacity="0.5" d="M112.501 173.403C109.439 177.748 101.993 177.777 95.8689 173.471C89.7447 169.164 87.2658 162.136 90.3279 157.781C93.39 153.426 100.836 153.407 106.96 157.713C113.085 162.019 115.564 169.048 112.501 173.403Z" fill="#4491EE"/>
<path opacity="0.5" d="M127.822 151.645C127.502 152.104 127.126 152.522 126.704 152.89C128.405 148.554 125.829 142.537 120.366 138.687C114.903 134.838 108.37 134.449 104.812 137.501C105.022 136.984 105.289 136.491 105.61 136.034C108.672 131.688 116.118 131.649 122.242 135.966C128.366 140.282 130.884 147.291 127.822 151.645Z" fill="#4491EE"/>
<path opacity="0.5" d="M98.8962 147.548C98.5701 148.005 98.1916 148.422 97.7686 148.792C99.4795 144.447 96.9132 138.439 91.4403 134.58C85.9674 130.721 79.4446 130.341 75.8867 133.404C76.0908 132.885 76.3551 132.392 76.6741 131.936C79.7459 127.581 87.1922 127.552 93.3164 131.868C99.4406 136.184 101.958 143.193 98.8962 147.548Z" fill="#4491EE"/>
<path opacity="0.5" d="M141.426 177.508C141.102 177.964 140.723 178.379 140.298 178.743C142.009 174.397 139.433 168.39 133.97 164.54C128.506 160.691 121.974 160.292 118.416 163.364C118.622 162.843 118.886 162.348 119.203 161.886C122.275 157.531 129.712 157.502 135.846 161.818C141.98 166.134 144.488 173.153 141.426 177.508Z" fill="#4491EE"/>
<path opacity="0.5" d="M112.502 173.403C112.181 173.858 111.806 174.273 111.384 174.637C113.075 170.302 110.519 164.284 105.046 160.435C99.5728 156.585 93.0501 156.197 89.4922 159.259C89.6959 158.735 89.9636 158.239 90.2893 157.781C93.3514 153.426 100.798 153.407 106.922 157.713C113.046 162.019 115.564 169.048 112.502 173.403Z" fill="#4491EE"/>
<path d="M121.846 71.1862C121.846 71.1862 108.732 88.2173 97.3003 102.877C95.6763 104.919 93.5491 106.505 91.1275 107.478C88.7059 108.451 86.0729 108.778 83.4868 108.427C73.4937 107.193 57.2402 114.26 57.2402 114.26C57.2402 114.26 88.0071 63.7205 121.846 71.1862Z" fill="#4491EE"/>
<path d="M121.846 71.1862C121.846 71.1862 108.732 88.2173 97.3003 102.877C95.6763 104.919 93.5491 106.505 91.1275 107.478C88.7059 108.451 86.0729 108.778 83.4868 108.427C73.4937 107.193 57.2402 114.26 57.2402 114.26C57.2402 114.26 88.0071 63.7205 121.846 71.1862Z" fill="#FFD540"/>
<path d="M183.398 114.534C183.398 114.534 171.781 132.625 161.827 148.324C160.453 150.542 159.678 153.079 159.579 155.686C159.48 158.294 160.061 160.882 161.263 163.197C165.793 172.189 164.617 189.92 164.617 189.92C164.617 189.92 201.829 143.872 183.398 114.534Z" fill="#4491EE"/>
<path d="M183.398 114.534C183.398 114.534 171.781 132.625 161.827 148.324C160.453 150.542 159.678 153.079 159.579 155.686C159.48 158.294 160.061 160.882 161.263 163.197C165.793 172.189 164.617 189.92 164.617 189.92C164.617 189.92 201.829 143.872 183.398 114.534Z" fill="#FFD540"/>
<path d="M225.81 244.588C237.903 214.881 185.478 206.462 164.675 213.918C143.872 221.374 122.719 226.915 121.903 207.036C121.086 187.157 137.087 174.83 129.466 170.242C125.227 167.695 124.022 172.186 121.942 178.738C115.535 198.812 79.3152 203.595 95.9769 232.651C112.639 261.707 103.754 255.398 75.7184 267.053C47.6831 278.709 62.1091 312.275 89.2403 312.275H252.65C327.511 312.275 256.635 168.93 225.81 244.588Z" fill="#4491EE"/>
<path opacity="0.6" d="M225.81 244.588C237.903 214.881 185.478 206.462 164.675 213.918C143.872 221.374 122.719 226.915 121.903 207.036C121.086 187.157 137.087 174.83 129.466 170.242C125.227 167.695 124.022 172.186 121.942 178.738C115.535 198.812 79.3152 203.595 95.9769 232.651C112.639 261.707 103.754 255.398 75.7184 267.053C47.6831 278.709 62.1091 312.275 89.2403 312.275H252.65C327.511 312.275 256.635 168.93 225.81 244.588Z" fill="white"/>
<path d="M87.8154 141.04C85.6282 133.477 73.8561 142.984 62.2396 154.503C50.623 166.023 44.9071 192.318 33.6891 206.025C22.4711 219.731 -9.71502 232.116 2.92224 252.743C21.3921 283.112 -21.1955 312.275 29.266 312.275H132.775C151.692 312.275 172.223 289.129 142.749 273.391C113.275 257.653 69.122 294.349 57.2041 259.344C51.2938 241.973 72.7576 249.944 62.8034 221.5C52.8491 193.057 53.5296 185.309 58.5942 172.633C70.969 141.769 91.1205 152.53 87.8154 141.04Z" fill="#4491EE"/>
<path opacity="0.6" d="M87.8154 141.04C85.6282 133.477 73.8561 142.984 62.2396 154.503C50.623 166.023 44.9071 192.318 33.6891 206.025C22.4711 219.731 -9.71502 232.116 2.92224 252.743C21.3921 283.112 -21.1955 312.275 29.266 312.275H132.775C151.692 312.275 172.223 289.129 142.749 273.391C113.275 257.653 69.122 294.349 57.2041 259.344C51.2938 241.973 72.7576 249.944 62.8034 221.5C52.8491 193.057 53.5296 185.309 58.5942 172.633C70.969 141.769 91.1205 152.53 87.8154 141.04Z" fill="white"/>
<path d="M109.252 144.534C111.819 139.849 120.626 142.658 120.431 148.792C120.237 154.926 97.4317 162.965 101.67 184.147C105.908 205.329 146.62 206.846 156.175 228.067C165.731 249.288 128.723 252.262 139.718 265.531C150.712 278.8 184.852 248.325 209.126 256.16C233.399 263.995 257.672 312.279 213.14 312.279H75.9192C46.0855 312.279 24.2912 250.658 52.9583 225.306C81.6254 199.954 58.5089 208.187 69.2117 191.944C79.9145 175.7 99.405 162.499 109.252 144.534Z" fill="#4491EE"/>
<path opacity="0.8" d="M109.252 144.534C111.819 139.849 120.626 142.658 120.431 148.792C120.237 154.926 97.4317 162.965 101.67 184.147C105.908 205.329 146.62 206.846 156.175 228.067C165.731 249.288 128.723 252.262 139.718 265.531C150.712 278.8 184.852 248.325 209.126 256.16C233.399 263.995 257.672 312.279 213.14 312.279H75.9192C46.0855 312.279 24.2912 250.658 52.9583 225.306C81.6254 199.954 58.5089 208.187 69.2117 191.944C79.9145 175.7 99.405 162.499 109.252 144.534Z" fill="white"/>
</g>
<defs>
<clipPath id="clip0_10949_10547">
<rect width="285.826" height="312.276" fill="white"/>
</clipPath>
</defs>
</svg>
