<svg width="1440" height="83" viewBox="0 0 1440 83" fill="none" xmlns="http://www.w3.org/2000/svg">
<path d="M-0.587891 16.8842V82.8842H173.412V16.8842C159.412 17.3842 149.412 18.032 132.412 10.8603C96.9121 -4.1158 74.9121 -3.11585 40.4121 10.8603C24.8192 17.1771 6.41211 16.7175 -0.587891 16.8842Z" fill="white" fill-opacity="0.08"/>
<path d="M173.412 16.8842V82.8842H347.412V16.8842C333.412 17.3842 323.412 18.032 306.412 10.8603C270.912 -4.1158 248.912 -3.11585 214.412 10.8603C198.819 17.1771 180.412 16.7175 173.412 16.8842Z" fill="white" fill-opacity="0.08"/>
<path d="M347.412 16.8842V82.8842H521.412V16.8842C507.412 17.3842 497.412 18.032 480.412 10.8603C444.912 -4.1158 422.912 -3.11585 388.412 10.8603C372.819 17.1771 354.412 16.7175 347.412 16.8842Z" fill="white" fill-opacity="0.08"/>
<path d="M521.412 16.8842V82.8842H695.412V16.8842C681.412 17.3842 671.412 18.032 654.412 10.8603C618.912 -4.1158 596.912 -3.11585 562.412 10.8603C546.819 17.1771 528.412 16.7175 521.412 16.8842Z" fill="white" fill-opacity="0.08"/>
<path d="M695.412 16.8842V82.8842H869.412V16.8842C855.412 17.3842 845.412 18.032 828.412 10.8603C792.912 -4.1158 770.912 -3.11585 736.412 10.8603C720.819 17.1771 702.412 16.7175 695.412 16.8842Z" fill="white" fill-opacity="0.08"/>
<path d="M869.412 16.8842V82.8842H1043.41V16.8842C1029.41 17.3842 1019.41 18.032 1002.41 10.8603C966.912 -4.1158 944.912 -3.11585 910.412 10.8603C894.819 17.1771 876.412 16.7175 869.412 16.8842Z" fill="white" fill-opacity="0.08"/>
<path d="M1043.41 16.8842V82.8842H1217.41V16.8842C1203.41 17.3842 1193.41 18.032 1176.41 10.8603C1140.91 -4.1158 1118.91 -3.11585 1084.41 10.8603C1068.82 17.1771 1050.41 16.7175 1043.41 16.8842Z" fill="white" fill-opacity="0.08"/>
<path d="M1217.41 16.8842V82.8842H1391.41V16.8842C1377.41 17.3842 1367.41 18.032 1350.41 10.8603C1314.91 -4.1158 1292.91 -3.11585 1258.41 10.8603C1242.82 17.1771 1224.41 16.7175 1217.41 16.8842Z" fill="white" fill-opacity="0.08"/>
<path d="M1391.41 16.8842V82.8842H1565.41V16.8842C1551.41 17.3842 1541.41 18.032 1524.41 10.8603C1488.91 -4.1158 1466.91 -3.11585 1432.41 10.8603C1416.82 17.1771 1398.41 16.7175 1391.41 16.8842Z" fill="white" fill-opacity="0.08"/>
</svg>
