<svg width="29" height="29" viewBox="0 0 29 29" fill="none" xmlns="http://www.w3.org/2000/svg">
<path d="M26.9092 21.1151C26.8527 20.9147 26.7206 20.7441 26.5407 20.6392C26.3608 20.5343 26.1473 20.5033 25.945 20.5527L23.9444 21.091C25.0391 19.4773 25.7029 17.6103 25.8727 15.6676C26.0368 13.8501 25.771 12.0195 25.0969 10.3236C24.4227 8.62779 23.3591 7.11432 21.9919 5.90552C21.8339 5.7748 21.6319 5.70948 21.4272 5.72292C21.2225 5.73637 21.0308 5.82756 20.8912 5.97783C20.7507 6.13774 20.6795 6.34683 20.693 6.55923C20.7066 6.77163 20.8039 6.96997 20.9635 7.11072C22.1416 8.1506 23.0581 9.45338 23.6388 10.9135C24.2195 12.3737 24.4481 13.9501 24.3059 15.515C24.1683 17.1633 23.6155 18.7499 22.699 20.1269L22.4981 18.1102C22.5133 17.9915 22.5017 17.8709 22.4643 17.7573C22.4269 17.6436 22.3646 17.5398 22.2819 17.4533C22.1993 17.3668 22.0983 17.2998 21.9865 17.2574C21.8746 17.2149 21.7547 17.1979 21.6354 17.2077C21.5162 17.2175 21.4006 17.2538 21.2972 17.3139C21.1938 17.3741 21.1051 17.4566 21.0376 17.5554C20.9701 17.6542 20.9256 17.7668 20.9072 17.885C20.8888 18.0033 20.8971 18.1241 20.9314 18.2387L21.3331 23.4131L26.3548 22.0793C26.5537 22.0211 26.7224 21.8883 26.8258 21.7087C26.9291 21.529 26.9589 21.3163 26.9092 21.1151Z" fill="#1F7AEA"/>
<path d="M3.4624 13.7233C3.56919 13.7919 3.68997 13.8359 3.81592 13.8518C4.02561 13.8793 4.23769 13.8231 4.40615 13.6952C4.57462 13.5673 4.68588 13.3782 4.71581 13.1689C5.0478 10.7176 6.29354 8.48226 8.20357 6.91043C10.1136 5.3386 12.5469 4.54634 15.0163 4.6923L13.2165 5.92161C13.0891 6.01754 12.9932 6.14919 12.9409 6.2998C12.8886 6.45042 12.8823 6.61319 12.9228 6.76739C12.9633 6.9216 13.0488 7.06028 13.1683 7.16577C13.2878 7.27127 13.4361 7.33881 13.5941 7.35981C13.7751 7.37636 13.9564 7.33104 14.1083 7.23126L18.3908 4.29057L14.727 0.61069C14.6618 0.510788 14.5752 0.426658 14.4734 0.364407C14.3717 0.302156 14.2573 0.263347 14.1387 0.250797C14.02 0.238247 13.9001 0.25227 13.7876 0.29185C13.675 0.33143 13.5727 0.395572 13.4881 0.479621C13.4034 0.563669 13.3385 0.665514 13.2981 0.777762C13.2577 0.890009 13.2429 1.00984 13.2545 1.12856C13.2662 1.24728 13.3042 1.36191 13.3657 1.46412C13.4273 1.56633 13.5108 1.65356 13.6102 1.71947L14.9761 3.08537C12.1244 2.94902 9.3253 3.88672 7.13125 5.71335C4.9372 7.53999 3.5077 10.1228 3.12494 12.9519C3.10434 13.0991 3.12498 13.2492 3.18455 13.3853C3.24413 13.5215 3.34031 13.6385 3.4624 13.7233Z" fill="#1F7AEA"/>
<path d="M17.4589 24.0478C16.2042 24.4485 14.8808 24.588 13.5701 24.4575C11.9739 24.3011 10.4398 23.7585 9.10014 22.8766C7.76051 21.9947 6.65565 20.8 5.88093 19.3957L7.88157 20.1429C8.06599 20.1749 8.25578 20.1415 8.4182 20.0485C8.58062 19.9554 8.70546 19.8086 8.77118 19.6334C8.83691 19.4581 8.83938 19.2654 8.77818 19.0885C8.71697 18.9117 8.59594 18.7617 8.43596 18.6645L4.74805 17.2986L3.56695 16.8728L2.6751 21.9748C2.64418 22.1787 2.69283 22.3867 2.81099 22.5557C2.92914 22.7247 3.10774 22.8418 3.30984 22.8827H3.44643C3.63553 22.8862 3.81979 22.8228 3.96676 22.7037C4.11373 22.5847 4.21399 22.4176 4.2499 22.2319L4.58735 20.3036C5.49609 21.8955 6.77252 23.2469 8.31003 24.2448C9.84755 25.2428 11.6015 25.8585 13.4255 26.0404C14.9504 26.1915 16.4902 26.0274 17.949 25.5583C18.1348 25.4814 18.2849 25.3376 18.3699 25.1554C18.4548 24.9732 18.4683 24.7657 18.4078 24.574C18.3472 24.3823 18.217 24.2202 18.0428 24.1198C17.8687 24.0194 17.6632 23.988 17.4669 24.0317L17.4589 24.0478Z" fill="#1F7AEA"/>
<path d="M17.6765 10.4451H11.2488C11.0357 10.4451 10.8313 10.5297 10.6806 10.6804C10.53 10.8311 10.4453 11.0354 10.4453 11.2485V17.6763C10.4453 17.8894 10.53 18.0937 10.6806 18.2444C10.8313 18.3951 11.0357 18.4797 11.2488 18.4797H17.6765C17.8896 18.4797 18.094 18.3951 18.2447 18.2444C18.3953 18.0937 18.48 17.8894 18.48 17.6763V11.2485C18.48 11.0354 18.3953 10.8311 18.2447 10.6804C18.094 10.5297 17.8896 10.4451 17.6765 10.4451ZM16.873 16.8728H12.0522V12.052H16.873V16.8728Z" fill="#1F7AEA"/>
</svg>
