<svg width="26" height="26" viewBox="0 0 26 26" fill="none" xmlns="http://www.w3.org/2000/svg">
<path d="M21.6368 18.9316V21.6362H4.3277V18.9316H2.16406V21.6362C2.16406 22.8262 3.1377 23.7998 4.3277 23.7998H21.6368C22.8268 23.7998 23.8004 22.8262 23.8004 21.6362V18.9316H21.6368Z" fill="#8FBDF5"/>
<path d="M12.9817 12.6574L9.19531 8.11377H16.768L12.9817 12.6574Z" fill="#1F7AEA"/>
<path d="M11.9004 2.16357H14.064V9.7363H11.9004V2.16357ZM17.039 14.5504L16.6604 15.1454L18.5536 16.1731L18.8781 15.524C19.7436 13.9013 20.2845 12.9818 20.7713 12.7113C21.2581 12.4408 22.1777 12.4408 23.8004 12.4408V10.2772C19.6354 10.2772 19.2568 10.4936 17.039 14.5504Z" fill="#1F7AEA"/>
<path d="M20.7713 16.7683L15.9032 18.9319L15.1459 13.5228L20.7713 16.7683ZM8.92543 14.5505L9.24997 15.1996L7.35679 16.2273L7.03224 15.5783C6.16679 13.9555 5.62588 13.036 5.13906 12.7655C4.70634 12.441 3.78679 12.441 2.16406 12.441V10.2773C6.32906 10.2773 6.7077 10.4937 8.92543 14.5505Z" fill="#1F7AEA"/>
<path d="M10.8188 13.5225L10.0615 18.9316L5.19336 16.7679L10.8188 13.5225Z" fill="#1F7AEA"/>
</svg>
