<svg width="26" height="26" viewBox="0 0 26 26" fill="none" xmlns="http://www.w3.org/2000/svg">
<path d="M22.2164 13.975C22.3923 12.6272 22.2787 11.2574 21.883 9.95706C21.4873 8.65671 20.8187 7.45576 19.9218 6.43446C19.0249 5.41315 17.9204 4.59499 16.682 4.03464C15.4437 3.47429 14.1 3.18465 12.7408 3.18506C10.2066 3.18506 7.77616 4.19177 5.98421 5.98372C4.19225 7.77567 3.18555 10.2061 3.18555 12.7403C3.18555 15.2745 4.19225 17.7049 5.98421 19.4968C7.77616 21.2888 10.2066 22.2955 12.7408 22.2955M9.55569 10.6169H9.56631M15.9258 10.6169H15.9365" stroke="#1F7AEA" stroke-width="2.12338" stroke-linecap="round" stroke-linejoin="round"/>
<path d="M10.0859 15.9253C10.7845 16.6048 11.7422 16.987 12.7402 16.987C13.7382 16.987 14.6958 16.6048 15.3944 15.9253M15.9252 20.1721L18.0486 22.2954L22.2954 18.0487" stroke="#1F7AEA" stroke-width="2.12338" stroke-linecap="round" stroke-linejoin="round"/>
</svg>
