<svg width="24" height="26" viewBox="0 0 24 26" fill="none" xmlns="http://www.w3.org/2000/svg">
<path fill-rule="evenodd" clip-rule="evenodd" d="M3 5.41683C3 4.81853 3.44772 4.3335 4 4.3335H16C16.5523 4.3335 17 4.81853 17 5.41683C17 6.01514 16.5523 6.50016 16 6.50016H4C3.44772 6.50016 3 6.01513 3 5.41683Z" fill="#1F7AEA"/>
<path fill-rule="evenodd" clip-rule="evenodd" d="M3 12.9998C3 12.4015 3.44772 11.9165 4 11.9165H20C20.5523 11.9165 21 12.4015 21 12.9998C21 13.5982 20.5523 14.0832 20 14.0832H4C3.44772 14.0832 3 13.5982 3 12.9998Z" fill="#1F7AEA"/>
<path fill-rule="evenodd" clip-rule="evenodd" d="M3 20.5833C3 19.985 3.44772 19.5 4 19.5H12C12.5523 19.5 13 19.985 13 20.5833C13 21.1817 12.5523 21.6667 12 21.6667H4C3.44772 21.6667 3 21.1817 3 20.5833Z" fill="#1F7AEA"/>
</svg>
