<svg width="19" height="20" viewBox="0 0 19 20" fill="none" xmlns="http://www.w3.org/2000/svg">
<path d="M0.323933 0.274414C0.080983 0.507502 0 0.895982 0 1.36216V18.533C0 18.9991 0.161967 19.3876 0.404917 19.6207L0.4859 19.6984L10.5278 10.0641V9.90872L0.323933 0.274414Z" fill="#4491EE"/>
<path d="M13.7676 13.3268L10.4473 10.1413V9.90819L13.7676 6.72266L13.8486 6.80035L17.8168 8.97584C18.9505 9.59741 18.9505 10.6075 17.8168 11.229L13.7676 13.3268Z" fill="url(#paint0_linear_8300_43109)"/>
<path d="M13.8484 13.2496L10.4471 9.98633L0.324219 19.6983C0.729136 20.0868 1.29602 20.0868 2.02487 19.776L13.8484 13.2496Z" fill="url(#paint1_linear_8300_43109)"/>
<path d="M13.8484 6.72273L2.02487 0.273961C1.29602 -0.114519 0.729136 -0.0368229 0.324219 0.351657L10.4471 9.98596L13.8484 6.72273Z" fill="url(#paint2_linear_8300_43109)"/>
<path opacity="0.2" d="M13.7675 13.1719L2.02487 19.5429C1.377 19.9314 0.810119 19.8537 0.405202 19.5429L0.324219 19.6206L0.405202 19.6983C0.810119 20.0091 1.377 20.0868 2.02487 19.6983L13.7675 13.1719Z" fill="black"/>
<path opacity="0.12" d="M0.323933 19.5429C0.0809831 19.3098 0 18.9214 0 18.4552V18.5329C0 18.9991 0.161967 19.3875 0.404917 19.6206V19.5429H0.323933ZM17.8163 10.9964L13.7672 13.1719L13.8482 13.2496L17.8163 11.0741C18.3832 10.7633 18.6262 10.3748 18.6262 9.98633C18.6262 10.3748 18.3022 10.6856 17.8163 10.9964Z" fill="black"/>
<path opacity="0.25" d="M2.02458 0.351815L17.8163 8.97607C18.3022 9.28685 18.6262 9.59764 18.6262 9.98612C18.6262 9.59764 18.3832 9.20916 17.8163 8.89837L2.02458 0.274119C0.890817 -0.347449 0 0.118726 0 1.36186V1.43956C0 0.274119 0.890817 -0.269753 2.02458 0.351815Z" fill="white"/>
<defs>
<linearGradient id="paint0_linear_8300_43109" x1="19.302" y1="9.98666" x2="-0.293559" y2="9.98666" gradientUnits="userSpaceOnUse">
<stop stop-color="#FFE000"/>
<stop offset="0.409" stop-color="#FFBD00"/>
<stop offset="0.775" stop-color="#FFA500"/>
<stop offset="1" stop-color="#FF9C00"/>
</linearGradient>
<linearGradient id="paint1_linear_8300_43109" x1="12.0077" y1="11.7702" x2="-5.65919" y2="30.1846" gradientUnits="userSpaceOnUse">
<stop stop-color="#FF3A44"/>
<stop offset="1" stop-color="#C31162"/>
</linearGradient>
<linearGradient id="paint2_linear_8300_43109" x1="-2.1887" y1="-5.41649" x2="5.70077" y2="2.80679" gradientUnits="userSpaceOnUse">
<stop stop-color="#32A071"/>
<stop offset="0.069" stop-color="#2DA771"/>
<stop offset="0.476" stop-color="#15CF74"/>
<stop offset="0.801" stop-color="#06E775"/>
<stop offset="1" stop-color="#00F076"/>
</linearGradient>
</defs>
</svg>
