<svg width="50" height="50" viewBox="0 0 50 50" fill="none" xmlns="http://www.w3.org/2000/svg">
<rect width="49.9766" height="49.9766" rx="24.9883" fill="white"/>
<path fill-rule="evenodd" clip-rule="evenodd" d="M20.4857 23.4714C20.4857 23.2725 20.5648 23.0817 20.7054 22.9411C20.8461 22.8004 21.0369 22.7214 21.2358 22.7214H23.1708L23.5024 21.0684C23.5462 20.8781 23.6625 20.7124 23.8266 20.6066C23.9907 20.5007 24.1896 20.463 24.381 20.5015C24.5725 20.54 24.7414 20.6516 24.8518 20.8127C24.9622 20.9737 25.0055 21.1715 24.9724 21.3639L24.7024 22.7214H26.1725L26.5025 21.0699C26.5478 20.8815 26.6643 20.718 26.8275 20.6136C26.9907 20.5091 27.188 20.4719 27.3781 20.5098C27.5681 20.5476 27.7361 20.6575 27.8469 20.8164C27.9578 20.9753 28.0028 21.171 27.9725 21.3624L27.7025 22.7214H29.1126C29.3115 22.7214 29.5023 22.8004 29.6429 22.9411C29.7836 23.0817 29.8626 23.2725 29.8626 23.4714C29.8626 23.6703 29.7836 23.8611 29.6429 24.0017C29.5023 24.1424 29.3115 24.2214 29.1126 24.2214H27.4025L27.1025 25.7214H28.7376C28.9365 25.7214 29.1272 25.8004 29.2679 25.9411C29.4086 26.0817 29.4876 26.2725 29.4876 26.4714C29.4876 26.6703 29.4086 26.8611 29.2679 27.0017C29.1272 27.1424 28.9365 27.2214 28.7376 27.2214H26.804L26.477 28.8609C26.4323 29.0501 26.3159 29.2146 26.1522 29.3197C25.9886 29.4247 25.7906 29.4622 25.5999 29.424C25.4092 29.3859 25.2408 29.2752 25.1302 29.1153C25.0196 28.9554 24.9754 28.7588 25.0069 28.5669L25.2739 27.2214H23.8009L23.4724 28.8609C23.456 28.9602 23.4199 29.0552 23.366 29.1403C23.3122 29.2254 23.2418 29.2987 23.159 29.356C23.0762 29.4133 22.9827 29.4533 22.8841 29.4737C22.7856 29.494 22.6839 29.4944 22.5852 29.4746C22.4865 29.4549 22.3927 29.4155 22.3096 29.3587C22.2264 29.302 22.1555 29.2291 22.1011 29.1444C22.0468 29.0597 22.01 28.9649 21.993 28.8657C21.976 28.7665 21.9792 28.6649 22.0023 28.5669L22.2723 27.2214H20.8653C20.6663 27.2214 20.4756 27.1424 20.3349 27.0017C20.1943 26.8611 20.1152 26.6703 20.1152 26.4714C20.1152 26.2725 20.1943 26.0817 20.3349 25.9411C20.4756 25.8004 20.6663 25.7214 20.8653 25.7214H22.5708L22.8708 24.2214H21.2358C21.0369 24.2214 20.8461 24.1424 20.7054 24.0017C20.5648 23.8611 20.4857 23.6703 20.4857 23.4714ZM25.8739 24.2214L25.5739 25.7214H24.1009L24.4009 24.2214H25.8739Z" fill="#1F7AEA"/>
<rect x="15" y="15" width="19.9766" height="19.9766" rx="3" stroke="#1F7AEA" stroke-width="2"/>
</svg>
