<svg width="13" height="15" viewBox="0 0 13 15" fill="none" xmlns="http://www.w3.org/2000/svg">
<path fill-rule="evenodd" clip-rule="evenodd" d="M9.47567 0.0824867C8.71427 -6.58631e-06 7.75453 -6.54839e-06 6.5302 1.18275e-07H6.4698C5.24547 -6.54839e-06 4.28574 -6.58631e-06 3.52432 0.0824867C2.74729 0.166673 2.11771 0.341547 1.58016 0.7321C1.25473 0.96854 0.96854 1.25473 0.7321 1.58016C0.341547 2.11771 0.166673 2.74729 0.0824867 3.52432C-6.58631e-06 4.28574 -6.54839e-06 5.24548 1.18275e-07 6.46987V7.86353C-6.54839e-06 9.08787 -6.58631e-06 10.0476 0.0824867 10.809C0.166673 11.5861 0.341547 12.2156 0.7321 12.7532C0.96854 13.0786 1.25473 13.3648 1.58016 13.6012C2.11771 13.9918 2.74729 14.1667 3.52432 14.2509C4.28573 14.3333 5.24547 14.3333 6.4698 14.3333H6.5302C7.75453 14.3333 8.71427 14.3333 9.47567 14.2509C10.2527 14.1667 10.8823 13.9918 11.4199 13.6012C11.7453 13.3648 12.0315 13.0786 12.2679 12.7532C12.6585 12.2156 12.8333 11.5861 12.9175 10.809C13 10.0476 13 9.08787 13 7.86353V6.4698C13 5.24549 13 4.28573 12.9175 3.52432C12.8333 2.74729 12.6585 2.11771 12.2679 1.58016C12.0315 1.25473 11.7453 0.96854 11.4199 0.7321C10.8823 0.341547 10.2527 0.166673 9.47567 0.0824867ZM3.16667 5.5C3.16667 5.13181 3.46515 4.83333 3.83333 4.83333H9.16667C9.53487 4.83333 9.83333 5.13181 9.83333 5.5C9.83333 5.8682 9.53487 6.16667 9.16667 6.16667H3.83333C3.46515 6.16667 3.16667 5.8682 3.16667 5.5ZM4.83333 8.83333C4.83333 8.46513 5.13181 8.16667 5.5 8.16667H7.5C7.8682 8.16667 8.16667 8.46513 8.16667 8.83333C8.16667 9.20153 7.8682 9.5 7.5 9.5H5.5C5.13181 9.5 4.83333 9.20153 4.83333 8.83333Z" fill="#1F7AEA"/>
</svg>
