<svg width="16" height="16" viewBox="0 0 16 16" fill="none" xmlns="http://www.w3.org/2000/svg">
<path fill-rule="evenodd" clip-rule="evenodd" d="M9.03427 2.16699C10.2603 2.16699 11.2231 2.16698 11.9822 2.25273C12.757 2.34025 13.3853 2.52274 13.9075 2.93519C14.0639 3.05865 14.2088 3.19503 14.3406 3.34286C14.7847 3.841 14.9831 4.44479 15.0775 5.18556C15.1693 5.90517 15.1693 6.81579 15.1693 7.96519V8.03553C15.1693 9.18486 15.1693 10.0955 15.0775 10.8151C14.9831 11.5559 14.7847 12.1597 14.3406 12.6578C14.2088 12.8057 14.0639 12.942 13.9075 13.0655C13.3853 13.4779 12.757 13.6604 11.9822 13.7479C11.2231 13.8337 10.2603 13.8337 9.03427 13.8337H6.97094C5.7449 13.8337 4.78205 13.8337 4.02299 13.7479C3.24822 13.6604 2.61994 13.4779 2.09769 13.0655C1.94134 12.942 1.79639 12.8056 1.66459 12.6578C1.22048 12.1597 1.02215 11.5559 0.927691 10.8151C0.835924 10.0955 0.835931 9.18479 0.835938 8.03546V7.96519C0.835931 6.81586 0.835924 5.90517 0.927691 5.18556C1.02215 4.44479 1.22048 3.841 1.66459 3.34286C1.79639 3.19503 1.94134 3.05865 2.09769 2.93519C2.61994 2.52274 3.24822 2.34025 4.02299 2.25273C4.78205 2.16698 5.7449 2.16699 6.97094 2.16699H9.03427ZM6.66927 5.33366C5.19651 5.33366 4.0026 6.52757 4.0026 8.00033C4.0026 9.47306 5.19651 10.667 6.66927 10.667C7.155 10.667 7.6104 10.5371 8.00267 10.3102C8.39487 10.5369 8.85054 10.667 9.3358 10.667C10.8085 10.667 12.0025 9.47306 12.0025 8.00033C12.0025 6.52757 10.8085 5.33366 9.3358 5.33366C8.85054 5.33366 8.39487 5.46369 8.00267 5.69044C7.6104 5.46353 7.155 5.33366 6.66927 5.33366ZM5.33594 8.00033C5.33594 7.26393 5.93289 6.66699 6.66927 6.66699C7.40567 6.66699 8.0026 7.26393 8.0026 8.00033C8.0026 8.73673 7.40567 9.33366 6.66927 9.33366C5.93289 9.33366 5.33594 8.73673 5.33594 8.00033ZM9.3358 9.33366C9.22067 9.33366 9.1092 9.31919 9.00287 9.29193C9.21507 8.90926 9.33594 8.46893 9.33594 8.00033C9.33594 7.53173 9.21507 7.09139 9.00287 6.70873C9.1092 6.68146 9.22067 6.66699 9.3358 6.66699C10.0721 6.66699 10.6691 7.26393 10.6691 8.00033C10.6691 8.73673 10.0721 9.33366 9.3358 9.33366Z" fill="#1F7AEA"/>
</svg>
