<svg width="131" height="24" viewBox="0 0 131 24" fill="none" xmlns="http://www.w3.org/2000/svg">
<path d="M17.108 0H21.3532V9.51642L21.4717 9.56602C21.6122 9.39334 21.7583 9.22526 21.8933 9.04799C23.3922 7.08152 25.4294 6.27049 27.8248 6.55339C30.5454 6.87394 32.4751 8.41056 33.5645 10.907C35.0855 14.3908 34.9009 17.7718 32.6781 20.9268C31.5401 22.5424 29.9291 23.5959 27.9938 23.8879C25.3477 24.2884 22.9789 23.651 21.2632 21.4016C21.1668 21.2749 21.0593 21.1564 20.8618 20.9212C20.8434 21.2831 20.8242 21.5091 20.8214 21.735C20.8168 22.2861 20.815 22.8372 20.8214 23.3883C20.8214 23.6528 20.7296 23.7392 20.4457 23.7336C19.4611 23.7147 18.4759 23.7177 17.4901 23.7428C17.1769 23.7502 17.0694 23.6684 17.0712 23.3479C17.0816 21.0057 17.0816 18.6633 17.0712 16.3206C17.0712 15.9982 17.2063 15.9256 17.4937 15.8962C18.6198 15.7786 19.5484 16.203 20.3456 16.935C20.9831 17.5201 21.5966 18.1355 22.1734 18.7793C24.2161 21.059 27.6485 20.7945 29.2871 18.2135C29.3909 18.0501 29.4708 17.8636 29.6058 17.7304C29.658 17.6785 29.7201 17.6374 29.7884 17.6096C29.8567 17.5819 29.9298 17.568 30.0035 17.5688C31.2783 17.7525 32.6469 16.7623 32.8646 15.4811C33.1172 13.9922 32.2363 12.6613 30.7576 12.3417C30.4801 12.2972 30.1969 12.3037 29.9217 12.361C29.5617 12.4197 29.3321 12.361 29.1116 12.0147C27.8588 10.0528 25.1851 9.6 23.3133 11.0044C22.2111 11.831 21.0308 12.5483 19.666 12.8358C18.9753 12.9819 18.2469 12.969 17.5342 12.9892C17.277 12.9966 17.0694 12.8873 17.0703 12.53C17.0823 8.4124 17.0786 4.29392 17.0804 0.176349C17.0861 0.117075 17.0953 0.0581902 17.108 0Z" fill="white"/>
<path d="M111.455 16.3196C109.45 16.3196 107.446 16.3269 105.442 16.3131C105.051 16.3131 104.964 16.405 105.05 16.8045C105.456 18.703 106.536 19.9558 108.456 20.4032C110.146 20.7963 112.573 20.1166 113.362 18.4743C113.405 18.3825 113.626 18.3035 113.736 18.332C114.757 18.591 115.774 18.8702 116.79 19.1531C117.148 19.2523 117.088 19.5058 116.917 19.7042C116.285 20.439 115.704 21.2298 114.971 21.8452C113.652 22.9556 112.083 23.4792 110.339 23.6169C108.3 23.7786 106.357 23.5554 104.619 22.455C102.408 21.0516 100.911 19.0989 100.554 16.4408C100.129 13.2785 100.928 10.4991 103.359 8.32141C104.791 7.03553 106.509 6.39902 108.43 6.23553C109.666 6.1299 110.881 6.20063 112.052 6.56894C115.242 7.57376 117.224 9.73496 117.896 12.9983C118.091 13.9435 118.008 14.9446 118.044 15.9209C118.057 16.2488 117.869 16.3315 117.557 16.3297C115.524 16.3177 113.489 16.3232 111.455 16.3232V16.3196ZM109.279 13.5017C110.61 13.5017 111.942 13.5017 113.27 13.5017C113.545 13.5017 113.696 13.4466 113.646 13.1232C113.498 12.1699 113.147 11.3037 112.466 10.6185C111.201 9.34735 109.646 9.03048 107.965 9.51636C106.284 10.0022 105.331 11.2367 104.987 12.9322C104.873 13.4934 104.895 13.4989 105.463 13.4989L109.279 13.5017Z" fill="white"/>
<path d="M53.3257 14.9424C53.4644 19.454 49.9016 24.0933 43.7248 23.6616C39.1939 23.3456 35.4511 19.6203 35.7294 14.4024C35.9388 10.4804 38.8945 5.68779 45.6536 6.25266C50.0633 6.62097 53.4139 10.4014 53.3257 14.9424ZM48.9565 14.9746L49.0713 14.9443C48.8803 14.1406 48.7802 13.3011 48.4798 12.5406C47.8681 10.992 46.6879 10.0699 45.0098 9.88434C43.3455 9.70065 42.0357 10.3555 41.0787 11.7066C39.8847 13.393 39.8277 16.2329 40.9345 17.9826C42.3278 20.187 45.2128 20.7234 47.1884 19.1013C48.4752 18.0451 48.9391 16.5939 48.9565 14.9718V14.9746Z" fill="white"/>
<path d="M63.247 23.7189C58.661 23.6987 55.3306 20.552 54.6298 16.5254C53.7783 11.6354 56.8488 7.08611 61.7021 6.3302C64.3253 5.92423 66.785 6.33571 68.9058 8.03766C70.5177 9.33089 71.5914 10.9878 71.9579 13.0333C72.4686 15.8806 71.9515 18.5121 70.0383 20.7623C68.8525 22.187 67.2004 23.1456 65.3751 23.4682C64.6725 23.6051 63.9561 23.639 63.247 23.7189ZM58.9356 14.7426C58.965 16.4675 59.2488 17.3263 60.092 18.4579C61.5441 20.406 64.7313 20.5594 66.3652 18.7591C68.0672 16.8845 68.2463 13.7552 66.8153 11.6611C65.3191 9.47234 62.4589 9.43009 60.8452 10.6765C59.4491 11.7566 58.9715 13.2694 58.9356 14.7426Z" fill="white"/>
<path d="M72.8555 21.4496C73.4121 20.5182 73.9255 19.6797 74.4169 18.8282C74.574 18.5527 74.7145 18.5775 74.9487 18.7226C76.4311 19.6411 78.0091 20.3401 79.7551 20.5329C80.7581 20.6432 81.7841 20.6974 82.7374 20.2078C83.5641 19.7853 83.9452 18.9219 83.5558 18.1623C83.3987 17.8565 83.0892 17.5378 82.776 17.4193C81.7501 17.0344 80.6901 16.7378 79.6431 16.4089C78.5234 16.059 77.3735 15.7862 76.2906 15.3472C73.8906 14.3736 73.2421 12.4916 73.9512 10.1431C74.5868 8.03697 76.2033 6.95683 78.2369 6.43146C80.4816 5.85097 82.6704 6.15591 84.7976 6.99632C85.5324 7.28565 86.2314 7.64937 86.9487 7.97543C87.2885 8.13065 87.3776 8.30608 87.1269 8.65143C86.697 9.2411 86.3076 9.86016 85.9237 10.482C85.7253 10.8044 85.5691 10.8925 85.1889 10.6602C83.5962 9.6783 81.8823 9.07026 79.9756 9.25671C79.4749 9.30607 78.9866 9.4422 78.5326 9.65901C77.9126 9.95844 77.6757 10.5398 77.706 11.2204C77.7363 11.8634 78.0991 12.2877 78.6842 12.4732C80.0141 12.8957 81.3652 13.253 82.6934 13.6829C83.6669 13.9979 84.6479 14.3258 85.571 14.7584C86.7374 15.3095 87.6669 16.183 87.813 17.5222C88.0325 19.5199 87.5677 21.2439 85.4359 22.5821C84.2419 23.3352 82.8826 23.6218 81.4727 23.6567C78.8357 23.7219 76.3209 23.2122 73.9466 22.0549C73.5939 21.8822 73.2541 21.6765 72.8555 21.4496Z" fill="white"/>
<path d="M88.5485 6.50325H90.7464C90.7565 6.31955 90.773 6.1579 90.773 6.00083C90.773 4.4936 90.7822 2.98637 90.7675 1.47913C90.7675 1.15583 90.8447 1.03091 91.191 1.03642C92.3427 1.05479 93.4945 1.05663 94.6463 1.03642C95.0137 1.02999 95.1404 1.12827 95.1294 1.50761C95.0881 2.93861 95.078 4.37144 95.0578 5.80336C95.0486 6.49406 95.067 6.51243 95.7402 6.51243H98.6913C98.6913 7.51633 98.6968 8.4936 98.6913 9.46995C98.6913 9.69957 98.5563 9.7905 98.3101 9.78591C97.3981 9.77213 96.4851 9.79509 95.5731 9.77397C95.2057 9.76478 95.0523 9.90072 95.0559 10.2598C95.078 12.7655 95.0982 15.2711 95.1166 17.7767C95.1166 17.8217 95.1267 17.8686 95.123 17.9108C94.988 19.6376 96.2674 19.824 97.4192 19.6302C97.8527 19.5567 98.2725 19.3813 98.6858 19.2197C98.9457 19.1196 99.0927 19.1076 99.1707 19.43C99.3875 20.3237 99.63 21.2109 99.8633 22.0991C99.9386 22.3811 99.8449 22.54 99.5749 22.6502C98.0722 23.2582 96.5283 23.6899 94.8906 23.655C92.847 23.6109 91.269 22.5262 90.9026 20.5698C90.8104 20.0111 90.7683 19.4452 90.7767 18.8789C90.7639 16.4624 90.7694 14.0449 90.7767 11.6229C90.7767 11.1636 90.8144 10.7044 90.8125 10.2387C90.8125 9.83918 90.5857 9.70325 90.1962 9.73815C89.8068 9.77305 89.388 9.74733 88.9875 9.78591C88.6817 9.8153 88.5595 9.65181 88.5549 9.41025C88.5421 8.46421 88.5485 7.5145 88.5485 6.50325Z" fill="white"/>
<path d="M120.148 6.53685H124.041V9.78461L124.15 9.8388C125.132 8.24064 126.307 6.85097 128.198 6.35958C128.79 6.20619 129.433 6.2512 130.127 6.20068V7.69689C130.127 8.41331 130.115 9.12973 130.132 9.84523C130.14 10.1373 130.04 10.2236 129.75 10.2347C128.609 10.2778 127.498 10.4974 126.488 11.0466C126.032 11.2994 125.607 11.6042 125.222 11.955C124.636 12.4831 124.354 13.1242 124.369 13.9692C124.421 16.9515 124.391 19.9394 124.403 22.9199C124.403 23.2533 124.322 23.4039 123.951 23.3965C122.815 23.3773 121.679 23.3818 120.542 23.3965C120.242 23.3965 120.117 23.3221 120.117 22.9961C120.126 17.5807 120.129 12.1653 120.125 6.74994C120.129 6.67856 120.136 6.60743 120.148 6.53685Z" fill="white"/>
<path d="M14.4179 9.89507C13.7915 10.3157 13.1531 10.7217 12.5433 11.1635C12.2026 11.4034 11.8939 11.6858 11.6248 12.0039C11.2574 12.4512 11.3033 12.8416 11.7561 13.2044C12.0384 13.447 12.3663 13.631 12.7205 13.7454C13.5472 13.9713 14.3977 14.121 15.2381 14.302C15.2895 14.313 15.3401 14.3286 15.5072 14.3727C15.3235 14.4581 15.2399 14.5022 15.1545 14.5325C14.3031 14.8393 13.4223 15.0836 12.6057 15.4629C11.3713 16.037 11.3097 16.8664 12.4165 17.6765C12.8684 18.008 13.3965 18.2358 13.8934 18.5031C14.0312 18.5775 14.1818 18.6299 14.3113 18.7933C14.1901 18.8025 14.0689 18.8209 13.944 18.8209C13.0025 18.8209 12.0601 18.8356 11.1196 18.8126C10.855 18.8052 10.5956 18.7377 10.361 18.6152C9.52054 18.1651 8.70217 17.6737 7.86359 17.2209C7.65646 17.1091 7.42646 17.0463 7.19126 17.0372C6.41423 17.0161 5.63627 17.0124 4.85923 17.0372C4.45756 17.0556 4.05959 16.9532 3.71664 16.7433C2.51526 16.0241 1.30286 15.3215 0.0968946 14.6106C0.0629107 14.5904 0.0427041 14.5472 -0.0078125 14.4847C0.0624572 14.4142 0.139008 14.3503 0.22089 14.2937C1.37267 13.637 2.5171 12.9757 3.68357 12.3364C3.907 12.2195 4.15435 12.1557 4.40642 12.1499C5.19815 12.1279 5.9908 12.1591 6.78254 12.1343C7.02949 12.1277 7.27004 12.0543 7.47875 11.9222C8.31641 11.3509 9.13937 10.7566 9.95314 10.1522C10.327 9.87669 10.7081 9.71688 11.1876 9.73249C12.0987 9.76005 13.0117 9.73892 13.9237 9.74168C14.0808 9.74168 14.2379 9.7628 14.3958 9.77474L14.4179 9.89507Z" fill="white"/>
</svg>
